<svg width="1371" height="690" viewBox="0 0 1371 690" fill="none" xmlns="http://www.w3.org/2000/svg">
<path fill-rule="evenodd" clip-rule="evenodd" d="M335.4 465V540.7C345.7 531.3 355.3 524.6 362.6 520.2C362.6 517.3 362.6 514.3 362.7 511.2C362.8 505.7 363.3 500.4 364.1 495.4C354.6 488.3 344.3 478.5 335.4 465Z" fill="#111111"/>
<path fill-rule="evenodd" clip-rule="evenodd" d="M497.3 51.2H366C349.1 51.2 335.4 64.9 335.4 81.8V85.4C368 64.8 441.2 54.1 497.3 51.2Z" fill="#111111"/>
<path fill-rule="evenodd" clip-rule="evenodd" d="M437.9 325.6C399.5 303.2 365.3 265.7 403.9 167.2C403.9 167.2 360.4 158.7 335.4 139.5V411.3C335.6 411.3 335.8 411.3 336 411.4L400 434.3C405.2 430.6 410.7 427.6 416.5 425.3C416.8 425.2 416.1 423.9 415.9 423C408.7 397.8 410.1 372.1 419.8 350.7C420.5 349.2 422.3 348.5 423.8 349.2C425.3 349.9 426 351.7 425.3 353.2C420 364.8 412.6 389.1 421.7 421.3C421.9 422 422 423.2 422.2 423.1C428.9 420.9 435.9 419.6 442.9 419.1C441.5 399.7 444.4 381.6 451.7 365.3C452.4 363.8 454.1 363.1 455.7 363.8C457.2 364.5 457.9 366.3 457.2 367.8C450.3 383.2 447.5 400.3 448.9 418.8C448.9 418.9 448.9 418.9 448.9 419C458.7 419.1 468.6 420.9 477.9 424.5C470.7 407.4 480.1 385.7 491.9 375.4L492.2 374.8C469.7 366.4 450.9 348.8 437.9 325.6Z" fill="#111111"/>
<path fill-rule="evenodd" clip-rule="evenodd" d="M1115.7 463.979C1129.77 461.368 1144.73 462.188 1159.13 465.126C1161.76 465.662 1164.17 466.234 1166.34 466.81L1166.98 466.983C1167.52 467.131 1168.03 467.274 1168.49 467.407L1169.44 467.693C1169.66 467.762 1169.83 467.815 1169.94 467.85C1171.51 468.367 1172.37 470.062 1171.85 471.636C1171.35 473.154 1169.76 474.005 1168.23 473.6L1167.4 473.345L1166.47 473.072C1166.25 473.008 1166.02 472.942 1165.77 472.874L1165.4 472.771C1163.2 472.17 1160.69 471.568 1157.93 471.005C1144.23 468.208 1130 467.429 1116.79 469.878C1093.82 474.141 1077.54 487.53 1070.41 512.723L1070.19 513.49C1061.57 545.059 1048.69 565.226 1032.89 575.899C1021.78 583.402 1010.54 585.434 1001.07 584.069C999.432 583.833 998.294 582.312 998.531 580.672C998.767 579.032 1000.29 577.894 1001.93 578.131C1010 579.295 1019.75 577.533 1029.53 570.926C1043.89 561.227 1055.89 542.563 1064.16 512.814L1064.41 511.91C1072.06 483.879 1090.33 468.685 1115.7 463.979Z" fill="#111111"/>
<circle cx="1170.8" cy="470" r="17.4" fill="#6D6D6D"/>
<path fill-rule="evenodd" clip-rule="evenodd" d="M1121.2 162.508C1122.8 162.067 1124.45 163.004 1124.89 164.601C1125.32 166.141 1124.46 167.732 1122.97 168.24L1122.32 168.436L1121.76 168.611C1121.47 168.706 1121.15 168.813 1120.81 168.932C1119.15 169.504 1117.3 170.223 1115.3 171.099C1109.57 173.604 1103.84 176.848 1098.51 180.899C1089.71 187.586 1082.89 195.794 1078.76 205.673C1073.82 217.496 1072.92 231.319 1076.82 247.39L1077.01 248.169C1084.78 279.105 1074.64 305.753 1051.89 324.883C1033.36 340.468 1007.78 349.103 991.21 346.36C989.575 346.089 988.47 344.545 988.74 342.91C989.011 341.275 990.555 340.17 992.19 340.44C1006.89 342.874 1030.76 334.818 1048.03 320.292C1068.89 302.746 1078.18 278.703 1071.4 250.487L1071.19 249.631C1066.76 232 1067.7 216.598 1073.23 203.36C1077.79 192.431 1085.29 183.41 1094.88 176.122C1100.62 171.762 1106.75 168.287 1112.89 165.602C1114.8 164.765 1116.6 164.058 1118.24 163.474L1118.85 163.261C1119.95 162.881 1120.75 162.634 1121.2 162.508Z" fill="#111111"/>
<path fill-rule="evenodd" clip-rule="evenodd" d="M1166.4 176.5L1182.5 156L1166.4 176.5Z" fill="white"/>
<path fill-rule="evenodd" clip-rule="evenodd" d="M1180.14 154.147C1181.16 152.844 1183.05 152.617 1184.35 153.641C1185.61 154.625 1185.86 156.406 1184.97 157.7L1184.86 157.853L1168.76 178.353C1167.74 179.656 1165.85 179.883 1164.55 178.859C1163.29 177.875 1163.04 176.094 1163.93 174.8L1164.04 174.647L1180.14 154.147Z" fill="#111111"/>
<path fill-rule="evenodd" clip-rule="evenodd" d="M1148.1 158.7L1164.1 138.2L1148.1 158.7Z" fill="white"/>
<path fill-rule="evenodd" clip-rule="evenodd" d="M1161.74 136.354C1162.75 135.048 1164.64 134.816 1165.95 135.835C1167.2 136.815 1167.46 138.596 1166.58 139.893L1166.46 140.046L1150.46 160.546C1149.45 161.852 1147.56 162.084 1146.25 161.065C1145 160.085 1144.74 158.304 1145.62 157.007L1145.74 156.854L1161.74 136.354Z" fill="#111111"/>
<path fill-rule="evenodd" clip-rule="evenodd" d="M1125.1 140.2L1141.2 119.7L1125.1 140.2Z" fill="white"/>
<path fill-rule="evenodd" clip-rule="evenodd" d="M1138.84 117.847C1139.86 116.544 1141.75 116.317 1143.05 117.341C1144.31 118.325 1144.56 120.106 1143.67 121.4L1143.56 121.553L1127.46 142.053C1126.44 143.356 1124.55 143.583 1123.25 142.559C1121.99 141.575 1121.74 139.794 1122.63 138.5L1122.74 138.347L1138.84 117.847Z" fill="#111111"/>
<path fill-rule="evenodd" clip-rule="evenodd" d="M1099.8 124.3L1115.8 103.8L1099.8 124.3Z" fill="white"/>
<path fill-rule="evenodd" clip-rule="evenodd" d="M1113.43 101.954C1114.45 100.648 1116.34 100.416 1117.65 101.435C1118.9 102.415 1119.16 104.196 1118.28 105.493L1118.16 105.646L1102.16 126.146C1101.15 127.452 1099.26 127.684 1097.95 126.665C1096.7 125.685 1096.44 123.904 1097.32 122.607L1097.43 122.454L1113.43 101.954Z" fill="#111111"/>
<path fill-rule="evenodd" clip-rule="evenodd" d="M1087 136.3L1097.7 121.3L1172.1 174.5L1161.4 189.5C1159 192.8 1154.4 193.6 1151.1 191.2L1088.7 146.6C1085.4 144.2 1084.6 139.6 1087 136.3Z" fill="#6D6D6D"/>
<path fill-rule="evenodd" clip-rule="evenodd" d="M1236.57 267.085C1237.95 266.182 1239.81 266.576 1240.72 267.965C1241.58 269.303 1241.25 271.076 1239.98 272.011L1239.83 272.116L1206.13 294.016C1204.75 294.918 1202.89 294.524 1201.98 293.135C1201.11 291.797 1201.45 290.024 1202.71 289.089L1202.87 288.985L1236.57 267.085Z" fill="#111111"/>
<path fill-rule="evenodd" clip-rule="evenodd" d="M1134.16 333.769C1135.67 333.083 1137.44 333.75 1138.13 335.258C1138.82 336.766 1138.15 338.545 1136.64 339.231C1104.74 353.745 1082.14 372.094 1065.23 396.532C1050.33 418.056 1039.57 444.308 1029.13 482.341L1028.5 484.684C1018.38 522.044 998.94 543.581 971.787 553.851C964.454 556.624 956.755 558.511 948.253 559.813C945.172 560.284 942.043 560.672 938.593 561.025L936.531 561.229C935.847 561.294 935.145 561.359 934.398 561.426L926.769 562.088C925.118 562.236 923.66 561.019 923.512 559.369C923.364 557.719 924.581 556.26 926.231 556.112L936.312 555.22C941.514 554.74 943.326 554.497 947.345 553.882C955.459 552.64 962.759 550.851 969.664 548.239C995.012 538.652 1013.09 518.623 1022.7 483.116L1023.35 480.737C1033.95 442.115 1044.95 415.292 1060.3 393.118C1077.84 367.763 1101.29 348.721 1134.16 333.769Z" fill="#111111"/>
<path fill-rule="evenodd" clip-rule="evenodd" d="M1133.5 316.7L1193.6 277.7C1197.4 275.3 1202.4 276.3 1204.9 280.1L1213.9 294C1216.3 297.8 1215.3 302.8 1211.5 305.3L1151.4 344.3C1147.6 346.7 1142.6 345.7 1140.1 341.9L1131.1 328C1128.7 324.2 1129.7 319.2 1133.5 316.7Z" fill="#6D6D6D"/>
<path fill-rule="evenodd" clip-rule="evenodd" d="M103.451 472.4L103.627 472.409C125.756 474.088 141.322 478.731 152.788 486.467L153.674 487.074C161.969 492.851 167.078 499.072 174.803 511.211L177.586 515.607L178.45 516.958C179 517.815 179.505 518.592 180.004 519.347C188.119 531.638 195.986 539.443 205.371 543.175C216.803 547.72 230.241 545.838 246.68 536.072L247.255 535.729C268.446 522.995 284.127 519.113 296.328 522.617C297.92 523.074 298.841 524.735 298.384 526.328C297.926 527.92 296.265 528.841 294.672 528.384C284.463 525.452 270.542 528.841 250.975 540.495L250.349 540.869C232.147 551.839 216.605 554.098 203.154 548.75C192.573 544.543 184.021 536.165 175.44 523.321L174.997 522.653C174.313 521.618 173.62 520.547 172.826 519.302L170.143 515.065C162.324 502.716 157.543 496.913 149.432 491.441C138.917 484.346 124.338 479.998 103.173 478.391C101.521 478.266 100.283 476.825 100.409 475.173C100.53 473.58 101.874 472.372 103.451 472.4Z" fill="#111111"/>
<circle cx="92.0001" cy="477.5" r="17.4" fill="#6D6D6D"/>
<path fill-rule="evenodd" clip-rule="evenodd" d="M166.5 240.3L111.9 234.7C106.4 234.1 102.4 229.2 103 223.7L110.3 152.3C110.9 146.8 115.8 142.8 121.3 143.4L175.9 149C181.4 149.6 185.4 154.5 184.8 160L177.5 231.4C176.9 236.8 172 240.8 166.5 240.3Z" fill="#6D6D6D"/>
<path fill-rule="evenodd" clip-rule="evenodd" d="M85.5209 160.847C85.7091 159.26 87.1032 158.11 88.6778 158.205L88.8534 158.221L137.753 164.021C139.399 164.216 140.574 165.708 140.379 167.353C140.191 168.94 138.797 170.09 137.222 169.995L137.047 169.979L88.1467 164.179C86.5014 163.984 85.3258 162.492 85.5209 160.847Z" fill="#111111"/>
<path fill-rule="evenodd" clip-rule="evenodd" d="M82.6208 185.247C82.809 183.66 84.203 182.51 85.7776 182.605L85.9533 182.621L134.853 188.421C136.499 188.616 137.674 190.108 137.479 191.753C137.291 193.34 135.897 194.49 134.322 194.395L134.147 194.379L85.2466 188.579C83.6012 188.384 82.4256 186.892 82.6208 185.247Z" fill="#111111"/>
<path fill-rule="evenodd" clip-rule="evenodd" d="M79.7209 209.647C79.9091 208.06 81.3031 206.91 82.8777 207.005L83.0534 207.021L131.953 212.821C133.599 213.016 134.774 214.508 134.579 216.153C134.391 217.74 132.997 218.89 131.422 218.795L131.247 218.779L82.3466 212.979C80.7013 212.784 79.5257 211.292 79.7209 209.647Z" fill="#111111"/>
<path fill-rule="evenodd" clip-rule="evenodd" d="M180.505 192.402C205.529 191.608 226.084 199.938 244.419 216.616L245.248 217.376C258.026 229.171 267.696 242.197 283.813 267.568L292.064 280.644C294.242 284.086 295.964 286.775 297.714 289.463C298.618 290.852 298.225 292.71 296.837 293.614C295.448 294.518 293.59 294.125 292.686 292.737L290.656 289.598C289.362 287.586 287.989 285.428 286.36 282.85L281.393 274.967C263.574 246.679 253.736 233.202 240.382 221.055C223.153 205.383 204.088 197.656 180.695 198.399C179.039 198.451 177.654 197.151 177.601 195.495C177.549 193.839 178.849 192.454 180.505 192.402Z" fill="#111111"/>
<path fill-rule="evenodd" clip-rule="evenodd" d="M155.221 146.247L161.179 146.953L150.379 238.153L144.421 237.447L155.221 146.247Z" fill="#111111"/>
<path fill-rule="evenodd" clip-rule="evenodd" d="M67.7078 354.09C68.7076 352.768 70.5892 352.508 71.9103 353.508C76.5152 356.993 79.3 362.338 79.3 368.2C79.3 373.687 76.7878 378.873 72.6071 382.316C71.3282 383.369 69.4375 383.186 68.3842 381.907C67.331 380.628 67.5139 378.737 68.7929 377.684C71.6065 375.367 73.3 371.872 73.3 368.2C73.3 364.261 71.4278 360.667 68.2897 358.292C66.9685 357.292 66.708 355.411 67.7078 354.09Z" fill="#111111"/>
<path fill-rule="evenodd" clip-rule="evenodd" d="M123.4 343.8L65.5001 351.8C57.4001 352.9 51.8001 360.4 52.9001 368.4L53.4001 371.7C54.5001 379.8 62.0001 385.4 70.0001 384.3L127.9 376.3C136 375.2 141.6 367.7 140.5 359.7L140 356.4C138.9 348.3 131.5 342.6 123.4 343.8Z" fill="#6D6D6D"/>
<path fill-rule="evenodd" clip-rule="evenodd" d="M62.9905 365.728C64.6318 365.502 66.1458 366.649 66.372 368.29C66.5902 369.873 65.5313 371.337 63.9837 371.643L63.8098 371.672L23.9098 377.172C22.2684 377.398 20.7545 376.251 20.5282 374.61C20.3101 373.027 21.3689 371.563 22.9165 371.257L23.0905 371.228L62.9905 365.728Z" fill="#111111"/>
<path fill-rule="evenodd" clip-rule="evenodd" d="M140.552 356.222C197.541 339.439 241.686 347.172 296.629 379.719C298.054 380.563 298.526 382.403 297.681 383.829C296.837 385.254 294.996 385.726 293.571 384.881C239.981 353.136 197.525 345.698 142.247 361.978C140.658 362.446 138.99 361.537 138.522 359.948C138.054 358.358 138.963 356.69 140.552 356.222Z" fill="#111111"/>
<path fill-rule="evenodd" clip-rule="evenodd" d="M889.5 420.1C886.7 420.1 884.2 421.1 882.2 423.1C877.9 427.9 875.8 436.1 875.8 447.5C875.8 458.9 877.9 467.1 882.2 471.9C884.2 473.9 886.7 474.9 889.5 474.9C892.3 474.9 894.8 473.9 896.8 471.9C901.1 467.1 903.2 458.9 903.2 447.5C903.2 436.1 901.1 427.9 896.8 423.1C894.8 421.2 892.4 420.1 889.5 420.1Z" fill="#111111"/>
<path fill-rule="evenodd" clip-rule="evenodd" d="M947.9 457.9V427.7L927 457.9H947.9Z" fill="#111111"/>
<path fill-rule="evenodd" clip-rule="evenodd" d="M844.9 457.9V427.7L824 457.9H844.9Z" fill="#111111"/>
<path fill-rule="evenodd" clip-rule="evenodd" d="M739 1.10001L317.999 1.20001C304.043 1.20001 292.7 12.5432 292.7 26.5L292.8 685.7C292.8 687.357 294.143 688.7 295.8 688.7H367.4C369.057 688.7 370.4 687.357 370.4 685.7V648.4C370.4 640.857 376.557 634.7 384.1 634.7H708.8C716.343 634.7 722.5 640.857 722.5 648.4V685.9C722.5 687.541 723.819 688.878 725.46 688.9L763.36 689.4C765.033 689.422 766.4 688.072 766.4 686.4V28.6C766.4 13.4278 754.142 1.10001 739 1.10001ZM318 7.20001L739.001 7.10001L739.354 7.10289C751.011 7.29291 760.4 16.8526 760.4 28.6L760.399 683.36L728.499 682.939L728.5 648.4C728.5 637.543 719.657 628.7 708.8 628.7H384.1L383.758 628.703C373.058 628.886 364.4 637.657 364.4 648.4L364.399 682.699H298.799L298.7 26.4996C298.7 15.8569 307.357 7.20001 318 7.20001Z" fill="#111111"/>
<path fill-rule="evenodd" clip-rule="evenodd" d="M835.9 330.2C836.3 330.2 836.7 329.8 836.7 329.4V319.7C836.7 319.3 836.3 318.9 835.9 318.9H795.2C794.8 318.9 794.4 319.3 794.4 319.7V329.4C794.4 329.8 794.8 330.2 795.2 330.2H835.9Z" fill="#111111"/>
<path fill-rule="evenodd" clip-rule="evenodd" d="M989 330.2C989.4 330.2 989.8 329.8 989.8 329.4V319.7C989.8 319.3 989.4 318.9 989 318.9H948.3C947.9 318.9 947.5 319.3 947.5 319.7V329.4C947.5 329.8 947.9 330.2 948.3 330.2H989Z" fill="#111111"/>
<path fill-rule="evenodd" clip-rule="evenodd" d="M997.7 0.899994L740.3 0.999994L762.4 17.5L761.1 685.9L821.1 685.6V650.3C821.1 641.1 828.6 633.6 837.8 633.6H951.7C960.9 633.6 968.4 641.1 968.4 650.3V686.3H1022.1V25.4C1022.2 11.9 1011.2 0.899994 997.7 0.899994ZM766.1 43.6H1021.8V49.6H766.1V43.6ZM766.1 108.8H1021.8V114.8H766.1V108.8ZM766.4 202.9V196.9H1021.8V202.9H766.4ZM1021.8 246.2V252.2H766.4V246.2H1021.8ZM766.4 153.7V147.7H1021.8V153.7H766.4ZM861.1 463.8C860.4 464.5 859.6 464.8 858.7 464.8H851.8V478.5C851.8 479.4 851.5 480.3 850.8 480.9C850.1 481.6 849.3 481.9 848.4 481.9C847.5 481.9 846.6 481.6 846 480.9C845.4 480.2 845 479.4 845 478.5V464.8H817.5C816.6 464.8 815.7 464.5 815.1 463.8C814.4 463.1 814.1 462.3 814.1 461.4C814.1 460.7 814.3 460 814.7 459.4L845.6 414.8C846.2 413.9 847.2 413.4 848.4 413.4C849.3 413.4 850.2 413.7 850.8 414.4C851.5 415.1 851.8 415.9 851.8 416.8V458H858.7C859.6 458 860.5 458.3 861.1 459C861.8 459.7 862.1 460.5 862.1 461.4C862.1 462.3 861.8 463.1 861.1 463.8ZM901.7 476.9C898.4 480.2 894.3 481.9 889.6 481.9C884.9 481.9 880.8 480.2 877.5 476.9C871.9 471.1 869 461.3 869 447.6C869 433.9 871.8 424.1 877.5 418.3C880.8 415 884.9 413.3 889.6 413.3C894.3 413.3 898.4 415 901.7 418.3C907.3 424.1 910.2 433.9 910.2 447.6C910.2 461.3 907.3 471.1 901.7 476.9ZM964 463.8C963.3 464.5 962.5 464.8 961.6 464.8H954.7V478.5C954.7 479.4 954.4 480.3 953.7 480.9C953 481.6 952.2 481.9 951.3 481.9C950.4 481.9 949.5 481.6 948.9 480.9C948.3 480.2 947.9 479.4 947.9 478.5V464.8H920.4C919.5 464.8 918.6 464.5 918 463.8C917.3 463.1 917 462.3 917 461.4C917 460.7 917.2 460 917.6 459.4L948.5 414.8C949.1 413.9 950.1 413.4 951.3 413.4C952.2 413.4 953.1 413.7 953.7 414.4C954.4 415.1 954.7 415.9 954.7 416.8V458H961.6C962.5 458 963.4 458.3 964 459C964.7 459.7 965 460.5 965 461.4C965.1 462.3 964.7 463.1 964 463.8ZM1022.1 364.1H766.4V358.1H1022.1V364.1ZM788.4 329.4V319.7C788.4 316 791.4 312.9 795.2 312.9H835.9C839.6 312.9 842.7 315.9 842.7 319.7V329.4C842.7 333.1 839.7 336.2 835.9 336.2H795.2C791.5 336.2 788.4 333.1 788.4 329.4ZM867.7 324.5C867.7 320.8 870.7 317.7 874.5 317.7C878.2 317.7 881.3 320.7 881.3 324.5C881.3 328.2 878.3 331.3 874.5 331.3C870.7 331.3 867.7 328.2 867.7 324.5ZM903.6 324.5C903.6 320.8 906.6 317.7 910.4 317.7C914.1 317.7 917.2 320.7 917.2 324.5C917.2 328.2 914.2 331.3 910.4 331.3C906.6 331.3 903.6 328.2 903.6 324.5ZM941.6 329.4V319.7C941.6 316 944.6 312.9 948.4 312.9H989.1C992.8 312.9 995.9 315.9 995.9 319.7V329.4C995.9 333.1 992.9 336.2 989.1 336.2H948.4C944.6 336.2 941.6 333.1 941.6 329.4ZM1022.1 290.8H766.4V284.8H1022.1V290.8Z" fill="#111111"/>
<path fill-rule="evenodd" clip-rule="evenodd" d="M417.096 56.9177C358.434 66.9238 321.059 82.4088 316.099 103.763L315.958 104.412C313.593 116.239 317.802 126.983 327.395 136.467C335.184 144.166 346.313 150.865 359.931 156.677C369.432 160.732 379.588 164.12 389.741 166.878L390.624 167.116C393.519 167.892 396.238 168.568 398.734 169.145L399.835 169.397L399.507 170.263C382.695 214.756 379.893 249.213 389.192 275.924L389.436 276.616C397.159 298.229 412.118 313.748 434.915 327.323L435.683 327.777L435.697 327.8C448.312 349.997 465.889 366.668 486.391 375.517L486.975 375.766L486.637 376.124C476.119 387.372 470.234 404.652 473.194 419.159L473.274 419.535L472.517 419.308C448.299 412.166 421.737 416.13 400.435 430.238L399.661 430.756L337.111 408.375C336.891 408.297 336.663 408.244 336.431 408.218C323.485 406.78 313.115 419.009 316.825 431.457L317.096 432.353C325.556 460.064 340.837 480.999 360.401 496.157L360.869 496.517L360.798 497.028C360.236 501.188 359.89 505.716 359.702 510.891L359.65 512.816C359.629 513.798 359.616 514.805 359.609 516.012L359.601 518.341L359.195 518.598C344.036 528.251 329.414 540.479 316.106 556.266C309.477 564.11 310.867 575.293 318.044 583.478L318.538 584.022C334.819 601.689 367.011 609.888 398.659 601.156L399.212 601H707.5C721.457 601 732.8 589.657 732.8 575.7V76.4L732.793 75.9702C732.448 61.7913 720.888 48.2 707.5 48.2L552.126 48.201L552.249 48.2104C520.934 45.6008 463.852 48.9422 417.096 56.9177ZM321.739 106.13L321.841 105.59C325.452 87.5789 361.565 72.4764 418.104 62.8323C464.39 54.9372 520.974 51.6249 551.751 54.1896C551.834 54.1965 551.917 54.2 552 54.2H707.5C717.463 54.2 726.707 65.1951 726.8 76.4248L726.8 575.7C726.8 586.343 718.143 595 707.5 595H398.8C398.52 595 398.242 595.039 397.972 595.116C367.84 603.763 337.215 595.931 322.537 579.501C317.174 573.385 316.19 565.463 320.691 560.136C334.092 544.239 348.877 532.063 364.184 522.548C365.064 522 365.6 521.037 365.6 520L365.61 515.787C365.623 513.985 365.649 512.64 365.698 511.097C365.913 505.189 366.34 500.19 367.062 495.674C367.239 494.571 366.788 493.462 365.893 492.795C346.193 478.112 330.857 457.494 322.575 429.742L322.5 429.48C320.293 421.438 326.87 413.567 335.222 414.133L335.44 414.15L399.089 436.925C400.008 437.254 401.03 437.115 401.828 436.552C423.709 421.129 452.056 417.56 476.822 427.099C479.293 428.051 481.695 425.568 480.662 423.13C474.637 408.903 481.429 388.322 493.873 377.46C494.167 377.203 494.408 376.891 494.583 376.542L494.883 375.942C495.685 374.339 494.911 372.395 493.227 371.781C471.87 363.998 453.452 347.217 440.517 324.134C440.255 323.667 439.874 323.278 439.412 323.009C416.665 309.74 402.13 294.839 394.858 273.951C385.801 247.936 388.946 213.582 406.693 168.295C407.377 166.55 406.311 164.612 404.471 164.255L403.554 164.068L402.5 163.842C402.001 163.734 401.463 163.614 400.887 163.483L399.417 163.144C396.922 162.558 394.204 161.873 391.314 161.088C381.409 158.398 371.507 155.094 362.286 151.159C333.946 139.064 318.533 123.987 321.739 106.13Z" fill="#111111"/>
<path fill-rule="evenodd" clip-rule="evenodd" d="M530.508 433.878C531.902 415.063 545.583 405.346 563.872 406.09C580.208 406.754 595.456 415.753 597.267 427.354L597.341 427.874C597.711 430.578 597.753 433.178 597.574 439.625L597.378 446.087C597.009 459.111 597.281 466.921 598.836 475.724C601.126 488.687 606.038 499.297 614.403 507.585C624.361 517.451 639.096 523.842 659.546 526.22C661.192 526.411 662.371 527.901 662.18 529.547C661.989 531.192 660.499 532.371 658.853 532.18C637.141 529.655 621.156 522.722 610.18 511.847C600.852 502.605 595.419 490.869 592.928 476.768L592.744 475.699C591.293 467.012 591.025 459.152 591.358 446.724L591.573 439.571C591.754 433.084 591.702 430.699 591.336 428.263C590.061 420.099 577.434 412.646 563.628 412.085C548.473 411.469 537.837 418.909 536.528 433.868L536.253 437.123C535.915 440.922 535.368 446.765 535.335 447.145L535.134 449.466C533.49 469.035 533.441 484.565 535.877 500.239C540.721 531.413 554.909 553.65 581.534 564.523C583.068 565.149 583.804 566.9 583.177 568.434C582.551 569.968 580.8 570.704 579.266 570.077C550.446 558.309 535.087 534.236 529.948 501.161C527.423 484.911 527.474 468.958 529.157 448.942L530.345 435.822C530.42 434.972 530.478 434.285 530.508 433.878Z" fill="#111111"/>
<path fill-rule="evenodd" clip-rule="evenodd" d="M550.453 410.838C550.764 409.21 552.335 408.143 553.962 408.453C555.59 408.764 556.657 410.335 556.347 411.962L556.061 413.479C551.453 438.211 549.99 460.855 554.995 471.081C555.723 472.57 555.107 474.366 553.619 475.095C552.131 475.823 550.334 475.207 549.605 473.719C546.199 466.758 545.336 455.631 546.332 441.317C547.03 431.302 548.56 420.757 550.453 410.838Z" fill="#111111"/>
<path fill-rule="evenodd" clip-rule="evenodd" d="M571.357 411.216C571.68 409.591 573.258 408.535 574.884 408.857C576.509 409.18 577.565 410.758 577.243 412.384L576.966 413.797C572.509 436.855 571.121 458.879 576.175 468.843C576.925 470.321 576.335 472.126 574.857 472.875C573.379 473.625 571.574 473.035 570.824 471.557C567.361 464.729 566.442 453.936 567.382 440.158C568.038 430.535 569.543 420.362 571.357 411.216Z" fill="#111111"/>
<path fill-rule="evenodd" clip-rule="evenodd" d="M493.115 371.514C515.284 369.397 550.376 385.152 576.368 407.735C577.618 408.822 577.751 410.717 576.665 411.968C575.578 413.218 573.683 413.351 572.432 412.265C547.562 390.656 513.925 375.554 493.685 377.486C492.036 377.644 490.571 376.434 490.414 374.785C490.256 373.136 491.466 371.671 493.115 371.514Z" fill="#111111"/>
<path fill-rule="evenodd" clip-rule="evenodd" d="M476.09 421.487C477.368 420.432 479.259 420.612 480.314 421.89C489.3 432.775 498.568 440.38 507.308 442.585L508.915 442.98C518.943 445.476 526.056 447.867 532.594 450.994C534.089 451.708 534.721 453.5 534.006 454.994C533.292 456.489 531.5 457.121 530.006 456.406C523.551 453.319 516.405 450.967 505.866 448.409C495.541 445.804 485.421 437.501 475.687 425.71C474.632 424.432 474.812 422.541 476.09 421.487Z" fill="#111111"/>
<path fill-rule="evenodd" clip-rule="evenodd" d="M509.732 426.844C510.347 425.37 512.003 424.646 513.491 425.168L513.656 425.232L534.256 433.832C535.785 434.47 536.507 436.227 535.868 437.756C535.253 439.23 533.597 439.954 532.109 439.432L531.944 439.368L511.344 430.768C509.815 430.13 509.093 428.373 509.732 426.844Z" fill="#111111"/>
<path fill-rule="evenodd" clip-rule="evenodd" d="M524.073 403.051C524.844 401.654 526.565 401.113 527.987 401.79L528.149 401.873L545.549 411.473C547 412.274 547.527 414.099 546.727 415.549C545.956 416.946 544.235 417.487 542.813 416.81L542.651 416.727L525.251 407.127C523.8 406.326 523.273 404.501 524.073 403.051Z" fill="#111111"/>
<path fill-rule="evenodd" clip-rule="evenodd" d="M316.493 562.868C317.573 561.696 319.369 561.579 320.589 562.569L321.069 562.986C321.136 563.043 321.212 563.107 321.297 563.177C321.816 563.607 322.436 564.09 323.155 564.615C325.233 566.131 327.667 567.653 330.428 569.076C337.673 572.81 345.803 575.182 354.663 575.54C365.981 575.996 377.764 573.116 389.915 566.193C391.354 565.373 393.186 565.875 394.007 567.315C394.827 568.755 394.325 570.586 392.885 571.407C379.759 578.885 366.864 582.037 354.421 581.535C344.629 581.14 335.661 578.523 327.68 574.41C324.866 572.96 322.354 571.412 320.161 569.852L319.619 569.462C318.204 568.43 317.213 567.609 316.668 567.107C315.449 565.984 315.371 564.086 316.493 562.868Z" fill="#111111"/>
<path fill-rule="evenodd" clip-rule="evenodd" d="M322.722 413.203C324.265 412.788 325.85 413.656 326.347 415.153L326.551 415.843L326.741 416.445C326.81 416.658 326.885 416.884 326.966 417.122L327.092 417.488C327.722 419.293 328.527 421.314 329.523 423.495C332.375 429.746 336.169 436.001 341.021 441.831C349.492 452.012 360.266 459.793 373.649 464.254C375.221 464.778 376.07 466.477 375.546 468.049C375.022 469.621 373.323 470.47 371.751 469.946C357.253 465.113 345.563 456.671 336.409 445.669C331.194 439.402 327.126 432.696 324.064 425.986C323.097 423.867 322.293 421.88 321.639 420.064L321.427 419.465C321.006 418.259 320.737 417.379 320.603 416.878C320.173 415.278 321.122 413.632 322.722 413.203Z" fill="#111111"/>
<path fill-rule="evenodd" clip-rule="evenodd" d="M625.481 100.085L625.028 100.39L602.534 115.36C593.223 121.574 585.776 126.668 578.541 131.825L576.731 133.12C549.148 152.93 529.979 170.197 519.293 186.499C509.887 200.849 507.811 213.558 513.729 224.879L513.881 225.165L514.157 225.588C525.285 242.435 540.712 249.53 559.684 248.702L560.265 248.674C574.117 247.954 589.069 243.105 604.285 235.405C610.102 232.461 615.498 229.335 620.627 226.069L621.485 225.52C622.452 224.898 623.328 224.323 624.362 223.635L626.602 222.146L626.865 221.979C626.905 221.954 626.942 221.932 626.979 221.91L628.016 221.321C629.562 220.471 629.382 220.84 630.821 222.279C631.321 222.778 631.628 223.438 631.689 224.142C635.361 266.674 645.391 296.711 661.086 316.458C674.222 332.985 691.014 342.116 712.357 346.152C713.985 346.46 715.056 348.029 714.748 349.657C714.44 351.285 712.87 352.356 711.242 352.048C688.565 347.759 670.487 337.929 656.389 320.192C640.694 300.445 630.523 271.338 626.32 231.056L626.174 229.628L625.976 229.759C625.428 230.117 624.885 230.468 624.299 230.843L623.85 231.129C618.565 234.495 613.002 237.718 606.994 240.758C591.096 248.803 575.395 253.896 560.577 254.666C539.091 255.782 521.27 247.612 508.782 228.331C508.739 228.264 508.699 228.196 508.661 228.127C501.292 214.499 503.659 199.404 514.275 183.21C525.71 165.765 545.937 147.696 575.059 126.939L577.33 125.327C583.921 120.669 590.812 115.969 599.202 110.371L621.806 95.3265C621.917 95.2516 622.021 95.1811 622.119 95.1152C623.491 94.1868 625.356 94.5467 626.285 95.9191C627.213 97.2914 626.853 99.1565 625.481 100.085Z" fill="#111111"/>
<path fill-rule="evenodd" clip-rule="evenodd" d="M539.308 51.1422C540.776 50.3737 542.589 50.9407 543.358 52.4086C544.126 53.8764 543.559 55.6893 542.091 56.4578C526.603 64.5661 510.274 76.8858 492.133 93.6058C456.003 126.911 434.13 168.582 426.823 213.42C420.321 253.324 425.947 293.675 441.39 324.972C442.123 326.458 441.513 328.257 440.027 328.99C438.542 329.723 436.743 329.113 436.01 327.628C420.003 295.19 414.201 253.573 420.901 212.455C428.42 166.314 450.933 123.424 488.067 89.194C506.561 72.1478 523.285 59.5312 539.308 51.1422Z" fill="#111111"/>
<circle cx="542.3" cy="192.4" r="8.2" fill="#111111"/>
<circle cx="551.6" cy="218.1" r="8.2" fill="#111111"/>
<circle cx="581" cy="225.9" r="8.2" fill="#111111"/>
<circle cx="575.8" cy="191.7" r="19.6" fill="#111111"/>
<circle cx="361.4" cy="104.7" r="8.2" fill="#111111"/>
<path fill-rule="evenodd" clip-rule="evenodd" d="M371 91.3C380.3 91.6 388.1 84.3 388.4 75C388.5 72.2 387.6 68.7 386.5 66.3C375.1 67.9 364.6 72.1 355.1 75.4C354.9 84.7 361.8 91 371 91.3Z" fill="#111111"/>
<path fill-rule="evenodd" clip-rule="evenodd" d="M329.3 90.7C329.1 95.6 333.2 99.6 338.2 99.1C341.8 98.8 344.9 96 345.6 92.4C346.4 87.8 343.3 83.6 339 82.8C335.5 84.8 332.3 87 329.5 89.5C329.3 90 329.3 90.4 329.3 90.7Z" fill="#111111"/>
<ellipse cx="406.967" cy="476.027" rx="12.2994" ry="7.79961" transform="rotate(-9.05067 406.967 476.027)" fill="#111111"/>
<ellipse cx="424.173" cy="533.228" rx="12.2994" ry="7.79961" transform="rotate(-9.05067 424.173 533.228)" fill="#111111"/>
<path fill-rule="evenodd" clip-rule="evenodd" d="M439.8 473.3L454.6 482.6C456.7 483.9 457.3 486.8 455.9 488.8L447 502C444.9 505.1 440 504.3 439.1 500.6L433.2 478.2C432.2 474.3 436.4 471.2 439.8 473.3Z" fill="#111111"/>
<path fill-rule="evenodd" clip-rule="evenodd" d="M460.332 466.361C460.575 464.722 462.1 463.59 463.739 463.832C473.601 465.291 476.439 470.998 471.104 477.068C470.048 478.269 468.652 479.5 467.038 480.695L466.718 480.928L466.861 480.935C469.649 481.087 472.159 481.44 474.133 482.018L474.497 482.129C478.385 483.365 480.78 485.778 480.154 489.386C479.631 492.401 476.842 495.426 471.703 498.97C470.339 499.91 468.471 499.567 467.53 498.203C466.59 496.839 466.933 494.971 468.297 494.03C470.445 492.549 472.026 491.239 473.054 490.124C473.676 489.449 474.029 488.921 474.173 488.58L474.189 488.538L474.151 488.508C473.902 488.328 473.482 488.12 472.903 487.921L472.678 487.846C468.834 486.623 461.074 486.566 454.087 487.475C450.549 487.935 449.308 482.939 452.65 481.69C458.048 479.672 464.002 476.059 466.597 473.107C467.117 472.515 467.458 471.999 467.622 471.605L467.705 471.385C467.709 471.375 467.713 471.369 467.716 471.364L467.724 471.357L467.704 471.334C467.617 471.24 467.412 471.086 467.039 470.896L466.891 470.824C465.995 470.398 464.65 470.032 462.861 469.768C461.222 469.525 460.09 468 460.332 466.361Z" fill="#111111"/>
<path fill-rule="evenodd" clip-rule="evenodd" d="M418.799 422.238C420.38 421.741 422.064 422.619 422.562 424.199C426.006 435.141 431.105 446.197 437.955 457.328C438.823 458.739 438.383 460.587 436.972 461.455C435.561 462.323 433.713 461.883 432.845 460.472C425.74 448.927 420.434 437.421 416.838 426.001C416.341 424.42 417.219 422.736 418.799 422.238Z" fill="#111111"/>
<path fill-rule="evenodd" clip-rule="evenodd" d="M445.735 417.112C447.386 416.966 448.842 418.185 448.988 419.836C450.019 431.486 452.614 443.408 456.928 455.599C457.481 457.161 456.663 458.875 455.101 459.428C453.539 459.981 451.824 459.163 451.272 457.601C446.79 444.934 444.087 432.517 443.012 420.364C442.866 418.714 444.085 417.258 445.735 417.112Z" fill="#111111"/>
<path fill-rule="evenodd" clip-rule="evenodd" d="M456.228 534.69C456.455 533.048 457.969 531.902 459.61 532.128C461.252 532.355 462.399 533.869 462.172 535.51C459.376 555.759 462.209 577.068 469.455 596.882C475.63 613.767 484.695 628.326 493.088 635.753C494.329 636.851 494.445 638.747 493.347 639.988C492.249 641.229 490.353 641.345 489.112 640.247C479.899 632.094 470.313 616.699 463.82 598.943C456.254 578.252 453.29 555.966 456.228 534.69Z" fill="#111111"/>
<path fill-rule="evenodd" clip-rule="evenodd" d="M476.962 526.509C478.614 526.378 480.059 527.611 480.191 529.262C481.815 549.702 489.143 569.931 500.445 587.716C510.086 602.887 522.047 615.139 531.855 620.576C533.304 621.38 533.827 623.206 533.024 624.655C532.22 626.104 530.395 626.627 528.945 625.824C518.175 619.853 505.522 606.893 495.381 590.934C483.578 572.361 475.916 551.208 474.21 529.738C474.078 528.086 475.311 526.641 476.962 526.509Z" fill="#111111"/>
<path fill-rule="evenodd" clip-rule="evenodd" d="M1367.3 683.1C1368.96 683.1 1370.3 684.443 1370.3 686.1C1370.3 687.698 1369.05 689.004 1367.48 689.095L1367.3 689.1H3.6001C1.94324 689.1 0.600098 687.757 0.600098 686.1C0.600098 684.502 1.84902 683.196 3.42382 683.105L3.6001 683.1H1367.3Z" fill="#111111"/>
</svg>
